<svg xmlns="http://www.w3.org/2000/svg" width="519.253" height="368.059" viewBox="0 0 519.253 368.059">
  <g id="文字" transform="translate(-1071.512 -94.075)">
    <g id="グループ_1" data-name="グループ 1" transform="translate(1074.012 96.575)">
      <path id="パス_1" data-name="パス 1" d="M1340.575,375.559h15.4v75.586H1588.58V96.575H1074.327V265.348L1124.62,375.7H1293.9" transform="translate(-1074.327 -96.575)" fill="none" stroke="#62a656" stroke-miterlimit="10" stroke-width="5"/>
      <line id="線_1" data-name="線 1" y2="31.901" transform="translate(219.184 266.184)" fill="none" stroke="#62a656" stroke-miterlimit="10" stroke-width="5"/>
      <line id="線_2" data-name="線 2" y2="31.901" transform="translate(265.855 265.397)" fill="none" stroke="#62a656" stroke-miterlimit="10" stroke-width="5"/>
    </g>
    <path id="パス_2" data-name="パス 2" d="M1329.015,435.852" transform="translate(-35.819 -47.296)" fill="none" stroke="#1a1311" stroke-miterlimit="10" stroke-width="5"/>
    <g id="グループ_2" data-name="グループ 2" transform="translate(1355.657 269.609)">
      <line id="線_3" data-name="線 3" y2="31.901" transform="translate(115.75 0)" fill="none" stroke="#62a656" stroke-miterlimit="10" stroke-width="5"/>
      <line id="線_4" data-name="線 4" y2="31.901" transform="translate(140.598 0)" fill="none" stroke="#62a656" stroke-miterlimit="10" stroke-width="5"/>
      <path id="パス_3" data-name="パス 3" d="M1401.594,405.961v-91.3h115.75" transform="translate(-1401.594 -300.011)" fill="none" stroke="#62a656" stroke-miterlimit="10" stroke-width="5"/>
      <line id="線_5" data-name="線 5" x2="92.01" transform="translate(140.598 14.65)" fill="none" stroke="#62a656" stroke-miterlimit="10" stroke-width="5"/>
    </g>
    <g id="グループ_3" data-name="グループ 3" transform="translate(1321.105 96.575)">
      <line id="線_6" data-name="線 6" x1="29.381" transform="translate(0 30.604)" fill="none" stroke="#62a656" stroke-miterlimit="10" stroke-width="5"/>
      <line id="線_7" data-name="線 7" x1="29.381" transform="translate(0.278 57.858)" fill="none" stroke="#62a656" stroke-miterlimit="10" stroke-width="5"/>
      <line id="線_8" data-name="線 8" y2="30.604" transform="translate(14.969)" fill="none" stroke="#62a656" stroke-miterlimit="10" stroke-width="5"/>
      <path id="パス_4" data-name="パス 4" d="M1378.837,163.805v39.357h252.192" transform="translate(-1363.869 -105.947)" fill="none" stroke="#62a656" stroke-miterlimit="10" stroke-width="5"/>
    </g>
    <g id="グループ_4" data-name="グループ 4" transform="translate(1072.073 96.575)">
      <line id="線_9" data-name="線 9" y2="31.901" transform="translate(99.152 109.554)" fill="none" stroke="#62a656" stroke-miterlimit="10" stroke-width="5"/>
      <line id="線_10" data-name="線 10" y2="31.901" transform="translate(125.996 109.554)" fill="none" stroke="#62a656" stroke-miterlimit="10" stroke-width="5"/>
      <path id="パス_5" data-name="パス 5" d="M1293.011,96.575v125.5h-74.533" transform="translate(-1092.482 -96.575)" fill="none" stroke="#62a656" stroke-miterlimit="10" stroke-width="5"/>
      <line id="線_11" data-name="線 11" x1="99.152" transform="translate(0 125.504)" fill="none" stroke="#62a656" stroke-miterlimit="10" stroke-width="5"/>
    </g>
    <g id="グループ_5" data-name="グループ 5" transform="translate(1075.783 249.507)">
      <line id="線_12" data-name="線 12" y2="31.901" transform="translate(91.879)" fill="none" stroke="#62a656" stroke-miterlimit="10" stroke-width="5"/>
      <line id="線_13" data-name="線 13" y2="31.901" transform="translate(122.286)" fill="none" stroke="#62a656" stroke-miterlimit="10" stroke-width="5"/>
      <line id="線_14" data-name="線 14" x2="91.879" transform="translate(0 14.71)" fill="none" stroke="#62a656" stroke-miterlimit="10" stroke-width="5"/>
      <path id="パス_6" data-name="パス 6" d="M1218.478,291.373h80.752V402.715" transform="translate(-1096.192 -276.663)" fill="none" stroke="#62a656" stroke-miterlimit="10" stroke-width="5"/>
    </g>
    <text id="広場" transform="translate(1293.196 251.682)" fill="#3c3b3b" font-size="24" font-family="KozGoPr6N-Regular, Kozuka Gothic Pr6N"><tspan x="0" y="0">広場</tspan></text>
    <g id="グループ_7" data-name="グループ 7" transform="translate(1243.999 393.906)">
      <g id="グループ_6" data-name="グループ 6" transform="translate(0 0)">
        <path id="パス_7" data-name="パス 7" d="M1271.848,497.8c31.945-2.026,61.55-25,71.442-55.441" transform="translate(-1271.848 -442.109)" fill="none" stroke="#cf5f4f" stroke-miterlimit="10" stroke-width="1"/>
        <path id="パス_8" data-name="パス 8" d="M1349.047,442.069c-3.653,5.43-9.147,9.43-15.072,12.209s-12.311,4.427-18.682,5.925" transform="translate(-1277.904 -442.069)" fill="none" stroke="#cf5f4f" stroke-miterlimit="10" stroke-width="1"/>
      </g>
      <path id="パス_9" data-name="パス 9" d="M1354.837,442.319a44.513,44.513,0,0,0,13.6,33.724" transform="translate(-1283.411 -442.104)" fill="none" stroke="#cf5f4f" stroke-miterlimit="10" stroke-width="1"/>
    </g>
    <text id="出入口" transform="translate(1157.711 459.133)" fill="#3c3b3b" font-size="24" font-family="KozGoPr6N-Regular, Kozuka Gothic Pr6N"><tspan x="0" y="0">出入口</tspan></text>
    <text id="宿泊_キャンプ" data-name="宿泊・キャンプ" transform="translate(1387.258 379.449)" fill="#3c3b3b" font-size="24" font-family="KozGoPr6N-Regular, Kozuka Gothic Pr6N"><tspan x="0" y="0">宿泊・キャンプ</tspan></text>
    <text id="キッチン" transform="translate(1415.511 153.058)" fill="#3c3b3b" font-size="24" font-family="KozGoPr6N-Regular, Kozuka Gothic Pr6N"><tspan x="0" y="0">キッチン</tspan></text>
    <text id="水辺" transform="translate(1145.657 167.069)" fill="#3c3b3b" font-size="24" font-family="KozGoPr6N-Regular, Kozuka Gothic Pr6N"><tspan x="0" y="0">水辺</tspan></text>
    <text id="自然" transform="translate(1157.712 333.465)" fill="#3c3b3b" font-size="24" font-family="KozGoPr6N-Regular, Kozuka Gothic Pr6N"><tspan x="0" y="0">自然</tspan></text>
  </g>
</svg>
