<svg xmlns="http://www.w3.org/2000/svg" width="357.734" height="161.458" viewBox="0 0 357.734 161.458">
  <g id="グループ_46" data-name="グループ 46" transform="translate(0 -4172.542)">
    <rect id="長方形_44" data-name="長方形 44" width="272" height="35" transform="translate(0 4238)" fill="#ffc000"/>
    <rect id="長方形_45" data-name="長方形 45" width="208" height="27" transform="translate(100 4256)" fill="#ffc000"/>
    <ellipse id="楕円形_97" data-name="楕円形 97" cx="15.371" cy="13.094" rx="15.371" ry="13.094" transform="translate(272.238 4236.338) rotate(-42)" fill="#e86553"/>
    <ellipse id="楕円形_84" data-name="楕円形 84" cx="22.203" cy="18.217" rx="22.203" ry="18.217" transform="matrix(-1, -0.017, 0.017, -1, 357.098, 4293.4)" fill="#6db45d"/>
    <ellipse id="楕円形_82" data-name="楕円形 82" cx="27.203" cy="22.217" rx="27.203" ry="22.217" transform="matrix(0.309, 0.951, -0.951, 0.309, 212.592, 4172.542)" fill="#6db45d"/>
    <ellipse id="楕円形_98" data-name="楕円形 98" cx="15.371" cy="13.094" rx="15.371" ry="13.094" transform="translate(57.238 4290.338) rotate(-42)" fill="#e86553"/>
    <ellipse id="楕円形_99" data-name="楕円形 99" cx="22.203" cy="18.217" rx="22.203" ry="18.217" transform="translate(123.609 4281.272) rotate(74)" fill="#6db45d"/>
    <ellipse id="楕円形_90" data-name="楕円形 90" cx="15.371" cy="13.094" rx="15.371" ry="13.094" transform="translate(31.163 4237.848) rotate(-124)" fill="#e86553"/>
  </g>
</svg>
