<svg xmlns="http://www.w3.org/2000/svg" width="751.692" height="533.232" viewBox="0 0 751.692 533.232">
  <g id="文字" transform="translate(-1072.073 -94.075)">
    <g id="グループ_1" data-name="グループ 1" transform="translate(1074.888 96.575)">
      <path id="パス_1" data-name="パス 1" d="M1460.755,501.487H1483.1v109.7h337.6V96.575H1074.327V341.529l73,160.17h245.7" transform="translate(-1074.327 -96.575)" fill="none" stroke="#62a656" stroke-miterlimit="10" stroke-width="5"/>
      <line id="線_1" data-name="線 1" y2="46.301" transform="translate(318.12 386.335)" fill="none" stroke="#62a656" stroke-miterlimit="10" stroke-width="5"/>
      <line id="線_2" data-name="線 2" y2="46.301" transform="translate(385.857 385.192)" fill="none" stroke="#62a656" stroke-miterlimit="10" stroke-width="5"/>
    </g>
    <path id="パス_2" data-name="パス 2" d="M1329.015,435.852" transform="translate(63.992 84.498)" fill="none" stroke="#1a1311" stroke-miterlimit="10" stroke-width="5"/>
    <g id="グループ_2" data-name="グループ 2" transform="translate(1483.662 347.713)">
      <line id="線_3" data-name="線 3" y2="46.301" transform="translate(167.997 0)" fill="none" stroke="#62a656" stroke-miterlimit="10" stroke-width="5"/>
      <line id="線_4" data-name="線 4" y2="46.301" transform="translate(204.061 0)" fill="none" stroke="#62a656" stroke-miterlimit="10" stroke-width="5"/>
      <path id="パス_3" data-name="パス 3" d="M1401.594,447.172V314.661h168" transform="translate(-1401.594 -293.398)" fill="none" stroke="#62a656" stroke-miterlimit="10" stroke-width="5"/>
      <line id="線_5" data-name="線 5" x2="133.542" transform="translate(204.061 21.263)" fill="none" stroke="#62a656" stroke-miterlimit="10" stroke-width="5"/>
    </g>
    <g id="グループ_3" data-name="グループ 3" transform="translate(1433.513 96.575)">
      <line id="線_6" data-name="線 6" x1="42.643" transform="translate(0 44.418)" fill="none" stroke="#62a656" stroke-miterlimit="10" stroke-width="5"/>
      <line id="線_7" data-name="線 7" x1="42.643" transform="translate(0.404 83.975)" fill="none" stroke="#62a656" stroke-miterlimit="10" stroke-width="5"/>
      <line id="線_8" data-name="線 8" y2="44.418" transform="translate(21.725)" fill="none" stroke="#62a656" stroke-miterlimit="10" stroke-width="5"/>
      <path id="パス_4" data-name="パス 4" d="M1378.837,163.805v57.122h366.027" transform="translate(-1357.112 -79.831)" fill="none" stroke="#62a656" stroke-miterlimit="10" stroke-width="5"/>
    </g>
    <g id="グループ_4" data-name="グループ 4" transform="translate(1072.073 96.575)">
      <line id="線_9" data-name="線 9" y2="46.301" transform="translate(143.907 159.004)" fill="none" stroke="#62a656" stroke-miterlimit="10" stroke-width="5"/>
      <line id="線_10" data-name="線 10" y2="46.301" transform="translate(182.868 159.004)" fill="none" stroke="#62a656" stroke-miterlimit="10" stroke-width="5"/>
      <path id="パス_5" data-name="パス 5" d="M1326.654,96.575V278.729H1218.478" transform="translate(-1035.61 -96.575)" fill="none" stroke="#62a656" stroke-miterlimit="10" stroke-width="5"/>
      <line id="線_11" data-name="線 11" x1="143.907" transform="translate(0 182.155)" fill="none" stroke="#62a656" stroke-miterlimit="10" stroke-width="5"/>
    </g>
    <g id="グループ_5" data-name="グループ 5" transform="translate(1077.458 318.538)">
      <line id="線_12" data-name="線 12" y2="46.301" transform="translate(133.352)" fill="none" stroke="#62a656" stroke-miterlimit="10" stroke-width="5"/>
      <line id="線_13" data-name="線 13" y2="46.301" transform="translate(177.484)" fill="none" stroke="#62a656" stroke-miterlimit="10" stroke-width="5"/>
      <line id="線_14" data-name="線 14" x2="133.352" transform="translate(0 21.35)" fill="none" stroke="#62a656" stroke-miterlimit="10" stroke-width="5"/>
      <path id="パス_6" data-name="パス 6" d="M1218.478,291.373h117.2v161.6" transform="translate(-1040.995 -270.023)" fill="none" stroke="#62a656" stroke-miterlimit="10" stroke-width="5"/>
    </g>
    <text id="広場" transform="translate(1393.008 322.216)" fill="#3c3b3b" font-size="35" font-family="KozGoPr6N-Regular, Kozuka Gothic Pr6N"><tspan x="0" y="0">広場</tspan></text>
    <g id="グループ_7" data-name="グループ 7" transform="translate(1321.603 528.116)">
      <g id="グループ_6" data-name="グループ 6" transform="translate(0 0)">
        <path id="パス_7" data-name="パス 7" d="M1271.848,522.821c46.365-2.94,89.332-36.284,103.689-80.466" transform="translate(-1271.848 -441.998)" fill="none" stroke="#cf5f4f" stroke-miterlimit="10" stroke-width="1"/>
        <path id="パス_8" data-name="パス 8" d="M1364.283,442.069c-5.3,7.882-13.275,13.686-21.875,17.72s-17.868,6.425-27.115,8.6" transform="translate(-1261.028 -442.069)" fill="none" stroke="#cf5f4f" stroke-miterlimit="10" stroke-width="1"/>
      </g>
      <path id="パス_9" data-name="パス 9" d="M1354.855,442.319a64.606,64.606,0,0,0,19.736,48.947" transform="translate(-1251.189 -442.007)" fill="none" stroke="#cf5f4f" stroke-miterlimit="10" stroke-width="1"/>
    </g>
    <text id="出入口" transform="translate(1196.367 623.307)" fill="#3c3b3b" font-size="35" font-family="KozGoPr6N-Regular, Kozuka Gothic Pr6N"><tspan x="0" y="0">出入口</tspan></text>
    <text id="宿泊_キャンプ" data-name="宿泊・キャンプ" transform="translate(1529.527 507.654)" fill="#3c3b3b" font-size="35" font-family="KozGoPr6N-Regular, Kozuka Gothic Pr6N"><tspan x="0" y="0">宿泊・キャンプ</tspan></text>
    <text id="キッチン" transform="translate(1570.532 179.074)" fill="#3c3b3b" font-size="35" font-family="KozGoPr6N-Regular, Kozuka Gothic Pr6N"><tspan x="0" y="0">キッチン</tspan></text>
    <text id="水辺" transform="translate(1178.872 199.41)" fill="#3c3b3b" font-size="35" font-family="KozGoPr6N-Regular, Kozuka Gothic Pr6N"><tspan x="0" y="0">水辺</tspan></text>
    <text id="自然" transform="translate(1196.367 440.915)" fill="#3c3b3b" font-size="35" font-family="KozGoPr6N-Regular, Kozuka Gothic Pr6N"><tspan x="0" y="0">自然</tspan></text>
  </g>
</svg>
