<svg xmlns="http://www.w3.org/2000/svg" width="224" height="105.981" viewBox="0 0 224 105.981">
  <g id="グループ_43" data-name="グループ 43" transform="translate(-918.484 -2484.976)">
    <rect id="長方形_42" data-name="長方形 42" width="224" height="17" transform="translate(918.484 2513.477)" fill="#ffc000"/>
    <rect id="長方形_43" data-name="長方形 43" width="54.618" height="17.538" transform="translate(1037.221 2565.234) rotate(-132)" fill="#ffc000"/>
    <ellipse id="楕円形_101" data-name="楕円形 101" cx="14.883" cy="12.135" rx="14.883" ry="12.135" transform="matrix(0.438, 0.899, -0.899, 0.438, 1057.229, 2553.564)" fill="#6db45d"/>
    <ellipse id="楕円形_93" data-name="楕円形 93" cx="7.702" cy="6.561" rx="7.702" ry="6.561" transform="translate(918.62 2538.773) rotate(-42)" fill="#e86553"/>
    <ellipse id="楕円形_102" data-name="楕円形 102" cx="11.125" cy="9.128" rx="11.125" ry="9.128" transform="matrix(0.259, 0.966, -0.966, 0.259, 956.617, 2486.811)" fill="#6db45d"/>
    <ellipse id="楕円形_95" data-name="楕円形 95" cx="7.702" cy="6.561" rx="7.702" ry="6.561" transform="translate(1113.04 2538.272) rotate(-42)" fill="#e86553"/>
    <ellipse id="楕円形_88" data-name="楕円形 88" cx="7.702" cy="6.561" rx="7.702" ry="6.561" transform="translate(1029.86 2501.693) rotate(-42)" fill="#e86553"/>
    <ellipse id="楕円形_103" data-name="楕円形 103" cx="11.125" cy="9.128" rx="11.125" ry="9.128" transform="matrix(0.485, 0.875, -0.875, 0.485, 989.848, 2530.36)" fill="#6db45d"/>
    <ellipse id="楕円形_86" data-name="楕円形 86" cx="11.125" cy="9.128" rx="11.125" ry="9.128" transform="translate(1087.371 2530.119) rotate(77)" fill="#6db45d"/>
    <ellipse id="楕円形_76" data-name="楕円形 76" cx="11.125" cy="9.128" rx="11.125" ry="9.128" transform="translate(1118.326 2492.692) rotate(115)" fill="#6db45d"/>
  </g>
</svg>
