<svg xmlns="http://www.w3.org/2000/svg" width="367" height="162.306" viewBox="0 0 367 162.306">
  <g id="グループ_47" data-name="グループ 47" transform="translate(-999 -5137.595)">
    <rect id="長方形_46" data-name="長方形 46" width="324" height="27" transform="translate(1042 5197)" fill="#ffc000"/>
    <rect id="長方形_47" data-name="長方形 47" width="112" height="27" transform="translate(1197.382 5155.192) rotate(23)" fill="#ffc000"/>
    <rect id="長方形_48" data-name="長方形 48" width="112" height="27" transform="translate(1092.006 5242.945) rotate(-24)" fill="#ffc000"/>
    <ellipse id="楕円形_96" data-name="楕円形 96" cx="15.371" cy="13.094" rx="15.371" ry="13.094" transform="translate(1060.238 5265.338) rotate(-42)" fill="#e86553"/>
    <ellipse id="楕円形_105" data-name="楕円形 105" cx="15.371" cy="13.094" rx="15.371" ry="13.094" transform="translate(1225.631 5240.338) rotate(-42)" fill="#e86553"/>
    <ellipse id="楕円形_104" data-name="楕円形 104" cx="15.371" cy="13.094" rx="15.371" ry="13.094" transform="translate(1317.238 5180.338) rotate(-42)" fill="#e86553"/>
    <ellipse id="楕円形_85" data-name="楕円形 85" cx="22.203" cy="18.217" rx="22.203" ry="18.217" transform="translate(1189.435 5137.595) rotate(90)" fill="#6db45d"/>
    <ellipse id="楕円形_106" data-name="楕円形 106" cx="14.703" cy="11.717" rx="14.703" ry="11.717" transform="matrix(0.309, 0.951, -0.951, 0.309, 1123.318, 5264.694)" fill="#6db45d"/>
    <ellipse id="楕円形_83" data-name="楕円形 83" cx="22.203" cy="18.217" rx="22.203" ry="18.217" transform="translate(1302.435 5224.595) rotate(90)" fill="#6db45d"/>
    <ellipse id="楕円形_100" data-name="楕円形 100" cx="22.203" cy="18.217" rx="22.203" ry="18.217" transform="translate(1035.435 5188.595) rotate(90)" fill="#6db45d"/>
  </g>
</svg>
