<svg xmlns="http://www.w3.org/2000/svg" width="345.762" height="362.336" viewBox="0 0 345.762 362.336">
  <g id="グループ_41" data-name="グループ 41" transform="translate(-1020.238 -5914.884)">
    <ellipse id="楕円形_42" data-name="楕円形 42" cx="22.203" cy="18.217" rx="22.203" ry="18.217" transform="matrix(0.951, 0.309, -0.309, 0.951, 1142.721, 5974.81)" fill="#6db45d"/>
    <ellipse id="楕円形_68" data-name="楕円形 68" cx="22.203" cy="18.217" rx="22.203" ry="18.217" transform="matrix(0.848, -0.53, 0.53, 0.848, 1040.915, 6168.839)" fill="#6db45d"/>
    <ellipse id="楕円形_51" data-name="楕円形 51" cx="22.203" cy="18.217" rx="22.203" ry="18.217" transform="translate(1210.582 5933.215) rotate(90)" fill="#6db45d"/>
    <ellipse id="楕円形_44" data-name="楕円形 44" cx="22.203" cy="18.217" rx="22.203" ry="18.217" transform="matrix(0.208, 0.978, -0.978, 0.208, 1155.47, 6068.394)" fill="#6db45d"/>
    <ellipse id="楕円形_47" data-name="楕円形 47" cx="22.203" cy="18.217" rx="22.203" ry="18.217" transform="translate(1089.632 6106.151) rotate(19)" fill="#6db45d"/>
    <ellipse id="楕円形_52" data-name="楕円形 52" cx="22.203" cy="18.217" rx="22.203" ry="18.217" transform="matrix(0.914, 0.407, -0.407, 0.914, 1303.598, 6112.562)" fill="#6db45d"/>
    <ellipse id="楕円形_72" data-name="楕円形 72" cx="22.203" cy="18.217" rx="22.203" ry="18.217" transform="translate(1321.595 6029.063)" fill="#6db45d"/>
    <ellipse id="楕円形_61" data-name="楕円形 61" cx="22.203" cy="18.217" rx="22.203" ry="18.217" transform="matrix(0.921, -0.391, 0.391, 0.921, 1288.916, 5995.881)" fill="#6db45d"/>
    <ellipse id="楕円形_57" data-name="楕円形 57" cx="22.203" cy="18.217" rx="22.203" ry="18.217" transform="matrix(0.899, 0.438, -0.438, 0.899, 1232.771, 6136.217)" fill="#6db45d"/>
    <ellipse id="楕円形_43" data-name="楕円形 43" cx="22.203" cy="18.217" rx="22.203" ry="18.217" transform="translate(1077.117 6016.08) rotate(41)" fill="#6db45d"/>
    <ellipse id="楕円形_45" data-name="楕円形 45" cx="22.203" cy="18.217" rx="22.203" ry="18.217" transform="translate(1259.515 5923.081) rotate(103)" fill="#6db45d"/>
    <ellipse id="楕円形_70" data-name="楕円形 70" cx="22.203" cy="18.217" rx="22.203" ry="18.217" transform="matrix(0.839, 0.545, -0.545, 0.839, 1115.351, 5929.185)" fill="#6db45d"/>
    <ellipse id="楕円形_67" data-name="楕円形 67" cx="22.203" cy="18.217" rx="22.203" ry="18.217" transform="matrix(0.839, 0.545, -0.545, 0.839, 1050.451, 6066.525)" fill="#6db45d"/>
    <ellipse id="楕円形_53" data-name="楕円形 53" cx="22.203" cy="18.217" rx="22.203" ry="18.217" transform="matrix(-0.391, 0.921, -0.921, -0.391, 1288.402, 6027.299)" fill="#6db45d"/>
    <ellipse id="楕円形_54" data-name="楕円形 54" cx="22.203" cy="18.217" rx="22.203" ry="18.217" transform="translate(1110.162 6209.085) rotate(-42)" fill="#6db45d"/>
    <ellipse id="楕円形_59" data-name="楕円形 59" cx="15.371" cy="13.094" rx="15.371" ry="13.094" transform="translate(1089.692 6180.714) rotate(-42)" fill="#e86553"/>
    <ellipse id="楕円形_48" data-name="楕円形 48" cx="15.371" cy="13.094" rx="15.371" ry="13.094" transform="translate(1147.76 6126.458) rotate(-42)" fill="#e86553"/>
    <ellipse id="楕円形_55" data-name="楕円形 55" cx="15.371" cy="13.094" rx="15.371" ry="13.094" transform="translate(1151.038 6222.116) rotate(-42)" fill="#e86553"/>
    <ellipse id="楕円形_49" data-name="楕円形 49" cx="15.371" cy="13.094" rx="15.371" ry="13.094" transform="translate(1156.822 6077.219) rotate(-97)" fill="#e86553"/>
    <ellipse id="楕円形_66" data-name="楕円形 66" cx="15.371" cy="13.094" rx="15.371" ry="13.094" transform="translate(1204.69 5995.235) rotate(-42)" fill="#e86553"/>
    <ellipse id="楕円形_46" data-name="楕円形 46" cx="15.371" cy="13.094" rx="15.371" ry="13.094" transform="translate(1083.999 6088.606) rotate(-42)" fill="#e86553"/>
    <ellipse id="楕円形_41" data-name="楕円形 41" cx="15.371" cy="13.094" rx="15.371" ry="13.094" transform="translate(1142.013 5959.022) rotate(-74)" fill="#e86553"/>
    <ellipse id="楕円形_69" data-name="楕円形 69" cx="15.371" cy="13.094" rx="15.371" ry="13.094" transform="translate(1020.238 6140.338) rotate(-42)" fill="#e86553"/>
    <ellipse id="楕円形_64" data-name="楕円形 64" cx="15.371" cy="13.094" rx="15.371" ry="13.094" transform="translate(1280.975 6052.015) rotate(-42)" fill="#e86553"/>
    <ellipse id="楕円形_71" data-name="楕円形 71" cx="15.371" cy="13.094" rx="15.371" ry="13.094" transform="matrix(0.899, 0.438, -0.438, 0.899, 1288.53, 6152.745)" fill="#e86553"/>
    <ellipse id="楕円形_73" data-name="楕円形 73" cx="15.371" cy="13.094" rx="15.371" ry="13.094" transform="matrix(0.899, 0.438, -0.438, 0.899, 1328.381, 6080.897)" fill="#e86553"/>
    <ellipse id="楕円形_65" data-name="楕円形 65" cx="15.371" cy="13.094" rx="15.371" ry="13.094" transform="matrix(0.899, 0.438, -0.438, 0.899, 1245.264, 6107.367)" fill="#e86553"/>
    <ellipse id="楕円形_62" data-name="楕円形 62" cx="15.371" cy="13.094" rx="15.371" ry="13.094" transform="matrix(0.883, 0.469, -0.469, 0.883, 1232.251, 6193.952)" fill="#e86553"/>
    <ellipse id="楕円形_60" data-name="楕円形 60" cx="15.371" cy="13.094" rx="15.371" ry="13.094" transform="translate(1083.999 6005.33) rotate(-42)" fill="#e86553"/>
    <ellipse id="楕円形_56" data-name="楕円形 56" cx="22.203" cy="18.217" rx="22.203" ry="18.217" transform="translate(1238.058 5981.855) rotate(-49)" fill="#6db45d"/>
    <ellipse id="楕円形_58" data-name="楕円形 58" cx="22.203" cy="18.217" rx="22.203" ry="18.217" transform="translate(1258.973 6073.172)" fill="#6db45d"/>
    <ellipse id="楕円形_63" data-name="楕円形 63" cx="22.203" cy="18.217" rx="22.203" ry="18.217" transform="translate(1277.219 6187.548) rotate(31)" fill="#6db45d"/>
    <ellipse id="楕円形_50" data-name="楕円形 50" cx="22.203" cy="18.217" rx="22.203" ry="18.217" transform="translate(1115.699 6015.879) rotate(16)" fill="#6db45d"/>
    <g id="グループ_12" data-name="グループ 12" transform="translate(1121.474 5984.759)">
      <rect id="長方形_18" data-name="長方形 18" width="35.296" height="191.283" transform="translate(65.767 101.178)" fill="#ffc000"/>
      <rect id="長方形_19" data-name="長方形 19" width="76.286" height="19.356" transform="translate(65.767 273.105)" fill="#ffc000"/>
      <rect id="長方形_20" data-name="長方形 20" width="76.286" height="19.356" transform="translate(14.531 273.105)" fill="#ffc000"/>
      <rect id="長方形_21" data-name="長方形 21" width="111.286" height="19.356" transform="translate(85.123) rotate(90)" fill="#ffc000"/>
      <path id="パス_11" data-name="パス 11" d="M0,0,78.513,3.858l.979,21.052L.979,21.052Z" transform="translate(9.678 144.182) rotate(30)" fill="#ffc000"/>
      <rect id="長方形_22" data-name="長方形 22" width="76.286" height="19.356" transform="translate(101.063 25.049) rotate(90)" fill="#ffc000"/>
      <path id="パス_12" data-name="パス 12" d="M0,0,82.968-3.858l-.979,19.921L-.979,19.921Z" transform="translate(137.056 82.319) rotate(120)" fill="#ffc000"/>
    </g>
  </g>
</svg>
