<svg xmlns="http://www.w3.org/2000/svg" width="448" height="211.504" viewBox="0 0 448 211.504">
  <g id="グループ_43" data-name="グループ 43" transform="translate(-918 -2484.977)">
    <rect id="長方形_42" data-name="長方形 42" width="448" height="35" transform="translate(918 2541)" fill="#ffc000"/>
    <rect id="長方形_43" data-name="長方形 43" width="109" height="35" transform="translate(1155.928 2645.145) rotate(-132)" fill="#ffc000"/>
    <ellipse id="楕円形_101" data-name="楕円形 101" cx="29.703" cy="24.217" rx="29.703" ry="24.217" transform="matrix(0.438, 0.899, -0.899, 0.438, 1195.856, 2621.855)" fill="#6db45d"/>
    <ellipse id="楕円形_93" data-name="楕円形 93" cx="15.371" cy="13.094" rx="15.371" ry="13.094" transform="translate(919.238 2592.338) rotate(-42)" fill="#e86553"/>
    <ellipse id="楕円形_102" data-name="楕円形 102" cx="22.203" cy="18.217" rx="22.203" ry="18.217" transform="matrix(0.259, 0.966, -0.966, 0.259, 995.067, 2488.637)" fill="#6db45d"/>
    <ellipse id="楕円形_95" data-name="楕円形 95" cx="15.371" cy="13.094" rx="15.371" ry="13.094" transform="translate(1307.238 2591.338) rotate(-42)" fill="#e86553"/>
    <ellipse id="楕円形_88" data-name="楕円形 88" cx="15.371" cy="13.094" rx="15.371" ry="13.094" transform="translate(1141.238 2518.338) rotate(-42)" fill="#e86553"/>
    <ellipse id="楕円形_103" data-name="楕円形 103" cx="22.203" cy="18.217" rx="22.203" ry="18.217" transform="matrix(0.485, 0.875, -0.875, 0.485, 1061.386, 2575.547)" fill="#6db45d"/>
    <ellipse id="楕円形_86" data-name="楕円形 86" cx="22.203" cy="18.217" rx="22.203" ry="18.217" transform="translate(1256.011 2575.066) rotate(77)" fill="#6db45d"/>
    <ellipse id="楕円形_76" data-name="楕円形 76" cx="22.203" cy="18.217" rx="22.203" ry="18.217" transform="translate(1317.788 2500.375) rotate(115)" fill="#6db45d"/>
  </g>
</svg>
