<svg xmlns="http://www.w3.org/2000/svg" width="307.295" height="135.901" viewBox="0 0 307.295 135.901">
  <g id="グループ_59" data-name="グループ 59" transform="translate(-1058.705 -16)">
    <rect id="長方形_46" data-name="長方形 46" width="271" height="22" transform="translate(1095 66)" fill="#ffc000"/>
    <rect id="長方形_47" data-name="長方形 47" width="93.779" height="22.608" transform="translate(1224.814 30.734) rotate(23)" fill="#ffc000"/>
    <rect id="長方形_48" data-name="長方形 48" width="93.779" height="22.607" transform="translate(1136.581 104.211) rotate(-24)" fill="#ffc000"/>
    <ellipse id="楕円形_96" data-name="楕円形 96" cx="12.87" cy="10.964" rx="12.87" ry="10.964" transform="translate(1109.981 122.961) rotate(-42)" fill="#e86553"/>
    <ellipse id="楕円形_105" data-name="楕円形 105" cx="12.87" cy="10.964" rx="12.87" ry="10.964" transform="translate(1248.467 102.028) rotate(-42)" fill="#e86553"/>
    <ellipse id="楕円形_104" data-name="楕円形 104" cx="12.87" cy="10.964" rx="12.87" ry="10.964" transform="translate(1325.171 51.789) rotate(-42)" fill="#e86553"/>
    <ellipse id="楕円形_85" data-name="楕円形 85" cx="18.59" cy="15.254" rx="18.59" ry="15.254" transform="translate(1218.159 16) rotate(90)" fill="#6db45d"/>
    <ellipse id="楕円形_106" data-name="楕円形 106" cx="12.311" cy="9.811" rx="12.311" ry="9.811" transform="matrix(0.309, 0.951, -0.951, 0.309, 1162.799, 122.422)" fill="#6db45d"/>
    <ellipse id="楕円形_83" data-name="楕円形 83" cx="18.59" cy="15.254" rx="18.59" ry="15.254" transform="translate(1312.776 88.846) rotate(90)" fill="#6db45d"/>
    <ellipse id="楕円形_100" data-name="楕円形 100" cx="18.59" cy="15.254" rx="18.59" ry="15.254" transform="translate(1089.213 58.703) rotate(90)" fill="#6db45d"/>
  </g>
</svg>
